<svg xmlns="http://www.w3.org/2000/svg" width="16" height="16.01">
 <path fill="#7289da" d="M14.99 5.89C14.68 5.89 13.1 5.89 10.26 5.89C10.26 3.05 10.26 1.47 10.26 1.16C10.26 0.86 10.16 0.6 9.95 0.39C9.73 0.17 9.48 0.07 9.17 0.07C8.95 0.07 7.21 0.07 6.99 0.07C6.69 0.07 6.43 0.17 6.22 0.39C6.01 0.6 5.9 0.86 5.9 1.16C5.9 1.47 5.9 3.05 5.9 5.89C3.06 5.89 1.49 5.89 1.17 5.89C0.87 5.89 0.61 5.99 0.4 6.21C0.19 6.42 0.08 6.68 0.08 6.98C0.08 7.2 0.08 8.95 0.08 9.16C0.08 9.47 0.19 9.72 0.4 9.94C0.61 10.15 0.87 10.25 1.17 10.25C1.49 10.25 3.06 10.25 5.9 10.25C5.9 13.09 5.9 14.67 5.9 14.99C5.9 15.29 6.01 15.55 6.22 15.76C6.43 15.97 6.69 16.08 6.99 16.08C7.21 16.08 8.96 16.08 9.17 16.08C9.48 16.08 9.73 15.97 9.95 15.76C10.16 15.55 10.26 15.29 10.26 14.99C10.26 14.67 10.26 13.09 10.26 10.25C13.1 10.25 14.68 10.25 14.99 10.25C15.29 10.25 15.55 10.15 15.76 9.94C15.98 9.72 16.08 9.47 16.08 9.16C16.08 8.95 16.08 7.2 16.08 6.98C16.08 6.68 15.98 6.42 15.76 6.21C15.55 5.99 15.29 5.89 14.99 5.89Z"></path>
</svg>