<svg xmlns="http://www.w3.org/2000/svg" width="48" height="48">
 <g fill="none" fill-rule="evenodd">
   <path fill="#7289da" d="m46.966397,18.424794c-0.634361,-0.634656 -1.404852,-0.951864 -2.310521,-0.951864l-14.133241,0l0,-14.142817c0,-0.90626 -0.31724,-1.677015 -0.951244,-2.31167c-0.634123,-0.634179 -1.403781,-0.951626 -2.310759,-0.951626l-6.522339,0c-0.905788,0 -1.675922,0.31709 -2.310164,0.951745c-0.634242,0.634656 -0.951244,1.405411 -0.951244,2.31167l0,14.142817l-14.133122,0c-0.905669,0 -1.675922,0.317209 -2.310164,0.951864s-0.951125,1.404696 -0.951125,2.311551l0,6.527427c0,0.907093 0.316764,1.677253 0.951006,2.311313c0.634242,0.634894 1.404495,0.951864 2.310164,0.951864l14.133122,0l0,14.143055c0,0.90626 0.317002,1.67761 0.951244,2.312028c0.634242,0.63406 1.404376,0.951031 2.310164,0.951031l6.522815,0c0.906383,0 1.67616,-0.316971 2.310521,-0.951031c0.63448,-0.634775 0.951244,-1.405768 0.951244,-2.312028l0,-14.143055l14.133003,0c0.906502,0 1.676517,-0.316971 2.310521,-0.951864c0.634123,-0.63406 0.951244,-1.40422 0.951244,-2.311313l0,-6.527427c-0.000238,-0.906855 -0.316645,-1.677372 -0.951125,-2.31167z"/>
 </g>
</svg>